<mxfile host="app.diagrams.net" modified="2024-03-23T21:21:10.996Z" agent="Mozilla/5.0 (Windows NT 10.0; Win64; x64; rv:124.0) Gecko/20100101 Firefox/124.0" etag="Xu4Zg9MNRdSOy73vOrub" version="24.1.0" type="device">
  <diagram name="Página-1" id="Uk28339yBBT8LVyom4EZ">
    <mxGraphModel dx="1687" dy="878" grid="1" gridSize="10" guides="1" tooltips="1" connect="1" arrows="1" fold="1" page="1" pageScale="1" pageWidth="827" pageHeight="1169" math="0" shadow="0">
      <root>
        <mxCell id="0" />
        <mxCell id="1" parent="0" />
        <mxCell id="_ldkojSGVwhx99D4-DMx-18" value="" style="rounded=0;whiteSpace=wrap;html=1;" vertex="1" parent="1">
          <mxGeometry x="640" y="75" width="120" height="615" as="geometry" />
        </mxCell>
        <mxCell id="_ldkojSGVwhx99D4-DMx-17" value="" style="rounded=0;whiteSpace=wrap;html=1;" vertex="1" parent="1">
          <mxGeometry x="30" y="70" width="120" height="620" as="geometry" />
        </mxCell>
        <mxCell id="_ldkojSGVwhx99D4-DMx-3" style="edgeStyle=orthogonalEdgeStyle;rounded=0;orthogonalLoop=1;jettySize=auto;html=1;exitX=1;exitY=0.5;exitDx=0;exitDy=0;exitPerimeter=0;entryX=0;entryY=0.5;entryDx=0;entryDy=0;" edge="1" parent="1" source="_ldkojSGVwhx99D4-DMx-2" target="_ldkojSGVwhx99D4-DMx-21">
          <mxGeometry relative="1" as="geometry">
            <mxPoint x="210" y="212.4999999999999" as="targetPoint" />
          </mxGeometry>
        </mxCell>
        <mxCell id="_ldkojSGVwhx99D4-DMx-2" value="Dataset de treino" style="shape=cylinder3;whiteSpace=wrap;html=1;boundedLbl=1;backgroundOutline=1;size=15;" vertex="1" parent="1">
          <mxGeometry x="50" y="120" width="80" height="120" as="geometry" />
        </mxCell>
        <mxCell id="_ldkojSGVwhx99D4-DMx-32" style="edgeStyle=orthogonalEdgeStyle;rounded=0;orthogonalLoop=1;jettySize=auto;html=1;exitX=1;exitY=0.5;exitDx=0;exitDy=0;entryX=0;entryY=0.5;entryDx=0;entryDy=0;" edge="1" parent="1" source="_ldkojSGVwhx99D4-DMx-7" target="_ldkojSGVwhx99D4-DMx-31">
          <mxGeometry relative="1" as="geometry" />
        </mxCell>
        <mxCell id="_ldkojSGVwhx99D4-DMx-7" value="Criação de modelo de teste" style="whiteSpace=wrap;html=1;aspect=fixed;" vertex="1" parent="1">
          <mxGeometry x="320" y="280" width="120" height="120" as="geometry" />
        </mxCell>
        <mxCell id="_ldkojSGVwhx99D4-DMx-19" value="Input" style="text;html=1;align=center;verticalAlign=middle;whiteSpace=wrap;rounded=0;" vertex="1" parent="1">
          <mxGeometry x="60" y="40" width="60" height="30" as="geometry" />
        </mxCell>
        <mxCell id="_ldkojSGVwhx99D4-DMx-20" value="Output" style="text;html=1;align=center;verticalAlign=middle;whiteSpace=wrap;rounded=0;" vertex="1" parent="1">
          <mxGeometry x="670" y="45" width="60" height="30" as="geometry" />
        </mxCell>
        <mxCell id="_ldkojSGVwhx99D4-DMx-24" style="edgeStyle=orthogonalEdgeStyle;rounded=0;orthogonalLoop=1;jettySize=auto;html=1;exitX=1;exitY=0.5;exitDx=0;exitDy=0;entryX=0;entryY=0.5;entryDx=0;entryDy=0;" edge="1" parent="1" source="_ldkojSGVwhx99D4-DMx-21" target="_ldkojSGVwhx99D4-DMx-23">
          <mxGeometry relative="1" as="geometry" />
        </mxCell>
        <mxCell id="_ldkojSGVwhx99D4-DMx-21" value="Preparação das imagens" style="rounded=0;whiteSpace=wrap;html=1;" vertex="1" parent="1">
          <mxGeometry x="320" y="150" width="120" height="60" as="geometry" />
        </mxCell>
        <mxCell id="_ldkojSGVwhx99D4-DMx-30" style="edgeStyle=orthogonalEdgeStyle;rounded=0;orthogonalLoop=1;jettySize=auto;html=1;exitX=0.5;exitY=1;exitDx=0;exitDy=0;" edge="1" parent="1" source="_ldkojSGVwhx99D4-DMx-23" target="_ldkojSGVwhx99D4-DMx-7">
          <mxGeometry relative="1" as="geometry" />
        </mxCell>
        <mxCell id="_ldkojSGVwhx99D4-DMx-23" value="Data de Treino" style="ellipse;whiteSpace=wrap;html=1;aspect=fixed;" vertex="1" parent="1">
          <mxGeometry x="660" y="140" width="80" height="80" as="geometry" />
        </mxCell>
        <mxCell id="_ldkojSGVwhx99D4-DMx-27" style="edgeStyle=orthogonalEdgeStyle;rounded=0;orthogonalLoop=1;jettySize=auto;html=1;exitX=1;exitY=0.5;exitDx=0;exitDy=0;exitPerimeter=0;entryX=0;entryY=0.5;entryDx=0;entryDy=0;" edge="1" parent="1" source="_ldkojSGVwhx99D4-DMx-25" target="_ldkojSGVwhx99D4-DMx-26">
          <mxGeometry relative="1" as="geometry" />
        </mxCell>
        <mxCell id="_ldkojSGVwhx99D4-DMx-25" value="Dataset de teste" style="shape=cylinder3;whiteSpace=wrap;html=1;boundedLbl=1;backgroundOutline=1;size=15;" vertex="1" parent="1">
          <mxGeometry x="50" y="410" width="80" height="120" as="geometry" />
        </mxCell>
        <mxCell id="_ldkojSGVwhx99D4-DMx-29" style="edgeStyle=orthogonalEdgeStyle;rounded=0;orthogonalLoop=1;jettySize=auto;html=1;exitX=1;exitY=0.5;exitDx=0;exitDy=0;entryX=0;entryY=0.5;entryDx=0;entryDy=0;" edge="1" parent="1" source="_ldkojSGVwhx99D4-DMx-26" target="_ldkojSGVwhx99D4-DMx-28">
          <mxGeometry relative="1" as="geometry" />
        </mxCell>
        <mxCell id="_ldkojSGVwhx99D4-DMx-26" value="Preparação das imagens" style="rounded=0;whiteSpace=wrap;html=1;" vertex="1" parent="1">
          <mxGeometry x="320" y="440" width="120" height="60" as="geometry" />
        </mxCell>
        <mxCell id="_ldkojSGVwhx99D4-DMx-36" style="edgeStyle=orthogonalEdgeStyle;rounded=0;orthogonalLoop=1;jettySize=auto;html=1;exitX=1;exitY=0.5;exitDx=0;exitDy=0;entryX=0;entryY=0.75;entryDx=0;entryDy=0;" edge="1" parent="1" source="_ldkojSGVwhx99D4-DMx-28" target="_ldkojSGVwhx99D4-DMx-33">
          <mxGeometry relative="1" as="geometry">
            <Array as="points">
              <mxPoint x="810" y="470" />
              <mxPoint x="810" y="430" />
            </Array>
          </mxGeometry>
        </mxCell>
        <mxCell id="_ldkojSGVwhx99D4-DMx-28" value="Data de Teste" style="ellipse;whiteSpace=wrap;html=1;aspect=fixed;" vertex="1" parent="1">
          <mxGeometry x="660" y="430" width="80" height="80" as="geometry" />
        </mxCell>
        <mxCell id="_ldkojSGVwhx99D4-DMx-35" style="edgeStyle=orthogonalEdgeStyle;rounded=0;orthogonalLoop=1;jettySize=auto;html=1;exitX=1;exitY=0.5;exitDx=0;exitDy=0;entryX=0;entryY=0.25;entryDx=0;entryDy=0;" edge="1" parent="1" source="_ldkojSGVwhx99D4-DMx-31" target="_ldkojSGVwhx99D4-DMx-33">
          <mxGeometry relative="1" as="geometry" />
        </mxCell>
        <mxCell id="_ldkojSGVwhx99D4-DMx-31" value="Modelo de teste" style="ellipse;whiteSpace=wrap;html=1;aspect=fixed;" vertex="1" parent="1">
          <mxGeometry x="660" y="300" width="80" height="80" as="geometry" />
        </mxCell>
        <mxCell id="_ldkojSGVwhx99D4-DMx-38" style="edgeStyle=orthogonalEdgeStyle;rounded=0;orthogonalLoop=1;jettySize=auto;html=1;exitX=0.5;exitY=1;exitDx=0;exitDy=0;entryX=1;entryY=0.5;entryDx=0;entryDy=0;" edge="1" parent="1" source="_ldkojSGVwhx99D4-DMx-33" target="_ldkojSGVwhx99D4-DMx-37">
          <mxGeometry relative="1" as="geometry">
            <Array as="points">
              <mxPoint x="950" y="625" />
            </Array>
          </mxGeometry>
        </mxCell>
        <mxCell id="_ldkojSGVwhx99D4-DMx-33" value="Usando o modelo de teste para avaliar a data de teste" style="whiteSpace=wrap;html=1;aspect=fixed;" vertex="1" parent="1">
          <mxGeometry x="890" y="340" width="120" height="120" as="geometry" />
        </mxCell>
        <mxCell id="_ldkojSGVwhx99D4-DMx-37" value="Previsão" style="ellipse;whiteSpace=wrap;html=1;aspect=fixed;" vertex="1" parent="1">
          <mxGeometry x="660" y="585" width="80" height="80" as="geometry" />
        </mxCell>
      </root>
    </mxGraphModel>
  </diagram>
</mxfile>
